<?xml version="1.0" encoding="UTF-8" standalone="no"?>
<!DOCTYPE svg PUBLIC "-//W3C//DTD SVG 1.1//EN"
 "http://www.w3.org/Graphics/SVG/1.1/DTD/svg11.dtd">
<!-- Generated by graphviz version 2.47.0 (20210316.0004)
 -->
<!-- Title: dependencies Pages: 1 -->
<svg width="604pt" height="355pt"
 viewBox="0.00 0.00 604.00 355.00" xmlns="http://www.w3.org/2000/svg" xmlns:xlink="http://www.w3.org/1999/xlink">
<g id="graph0" class="graph" transform="scale(1 1) rotate(0) translate(4 351)">
<title>dependencies</title>
<polygon fill="white" stroke="transparent" points="-4,4 -4,-351 600,-351 600,4 -4,4"/>
<text text-anchor="start" x="277.01" y="-42.4" font-family="Times-12" font-weight="bold" font-size="14.00">Legend</text>
<polygon fill="#ffffb3" stroke="transparent" points="64,-10 64,-30 84,-30 84,-10 64,-10"/>
<text text-anchor="start" x="87.63" y="-15.4" font-family="Times-12" font-size="14.00"> &#160;Declarations</text>
<polygon fill="#8dd3c7" stroke="transparent" points="177,-10 177,-30 197,-30 197,-10 177,-10"/>
<text text-anchor="start" x="200.73" y="-15.4" font-family="Times-12" font-size="14.00"> &#160;Module</text>
<polygon fill="#80b1d3" stroke="transparent" points="263,-10 263,-30 283,-30 283,-10 263,-10"/>
<text text-anchor="start" x="286.78" y="-15.4" font-family="Times-12" font-size="14.00"> &#160;Bootstrap</text>
<polygon fill="#fdb462" stroke="transparent" points="360,-10 360,-30 380,-30 380,-10 360,-10"/>
<text text-anchor="start" x="383.67" y="-15.4" font-family="Times-12" font-size="14.00"> &#160;Providers</text>
<polygon fill="#fb8072" stroke="transparent" points="456,-10 456,-30 476,-30 476,-10 456,-10"/>
<text text-anchor="start" x="479.73" y="-15.4" font-family="Times-12" font-size="14.00"> &#160;Exports</text>
<g id="clust19" class="cluster">
<title>cluster_UsersModule</title>
<polygon fill="none" stroke="black" stroke-dasharray="1,5" points="274,-70 274,-282 430,-282 430,-70 274,-70"/>
</g>
<g id="clust22" class="cluster">
<title>cluster_UsersModule_exports</title>
<polygon fill="none" stroke="black" points="282,-222 282,-274 392,-274 392,-222 282,-222"/>
</g>
<g id="clust24" class="cluster">
<title>cluster_UsersModule_providers</title>
<polygon fill="none" stroke="black" points="282,-78 282,-130 422,-130 422,-78 282,-78"/>
</g>
<g id="clust1" class="cluster">
<title>cluster_AppModule</title>
<polygon fill="none" stroke="black" stroke-dasharray="1,5" points="8,-214 8,-339 266,-339 266,-214 8,-214"/>
</g>
<g id="clust3" class="cluster">
<title>cluster_AppModule_imports</title>
<polygon fill="none" stroke="black" points="154,-222 154,-274 258,-274 258,-222 154,-222"/>
</g>
<g id="clust6" class="cluster">
<title>cluster_AppModule_providers</title>
<polygon fill="none" stroke="black" points="16,-222 16,-274 146,-274 146,-222 16,-222"/>
</g>
<g id="clust7" class="cluster">
<title>cluster_AuthModule</title>
<polygon fill="none" stroke="black" stroke-dasharray="1,5" points="438,-70 438,-282 588,-282 588,-70 438,-70"/>
</g>
<g id="clust10" class="cluster">
<title>cluster_AuthModule_exports</title>
<polygon fill="none" stroke="black" points="460,-222 460,-274 566,-274 566,-222 460,-222"/>
</g>
<g id="clust12" class="cluster">
<title>cluster_AuthModule_providers</title>
<polygon fill="none" stroke="black" points="446,-78 446,-130 580,-130 580,-78 446,-78"/>
</g>
<g id="clust13" class="cluster">
<title>cluster_postsModule</title>
<polygon fill="none" stroke="black" stroke-dasharray="1,5" points="114,-138 114,-206 266,-206 266,-138 114,-138"/>
</g>
<g id="clust18" class="cluster">
<title>cluster_postsModule_providers</title>
<polygon fill="none" stroke="black" points="122,-146 122,-198 258,-198 258,-146 122,-146"/>
</g>
<!-- UsersModule -->
<g id="node1" class="node">
<title>UsersModule</title>
<polygon fill="#8dd3c7" stroke="black" points="389.92,-190 386.92,-194 365.92,-194 362.92,-190 298.08,-190 298.08,-154 389.92,-154 389.92,-190"/>
<text text-anchor="middle" x="344" y="-167.8" font-family="Times,serif" font-size="14.00">UsersModule</text>
</g>
<!-- postsModule -->
<g id="node2" class="node">
<title>postsModule</title>
<polygon fill="#8dd3c7" stroke="black" points="250.33,-266 247.33,-270 226.33,-270 223.33,-266 161.67,-266 161.67,-230 250.33,-230 250.33,-266"/>
<text text-anchor="middle" x="206" y="-243.8" font-family="Times,serif" font-size="14.00">postsModule</text>
</g>
<!-- UsersModule&#45;&gt;postsModule -->
<g id="edge6" class="edge">
<title>UsersModule&#45;&gt;postsModule</title>
<path fill="none" stroke="black" d="M298.16,-166C280.11,-166 263.6,-166 263.6,-166 263.6,-166 263.6,-248 263.6,-248 263.6,-248 260.24,-248 260.24,-248"/>
<polygon fill="black" stroke="black" points="260.24,-244.5 250.24,-248 260.24,-251.5 260.24,-244.5"/>
</g>
<!-- AppModule -->
<g id="node3" class="node">
<title>AppModule</title>
<polygon fill="#8dd3c7" stroke="black" points="247.66,-331 244.66,-335 223.66,-335 220.66,-331 164.34,-331 164.34,-295 247.66,-295 247.66,-331"/>
<text text-anchor="middle" x="206" y="-308.8" font-family="Times,serif" font-size="14.00">AppModule</text>
</g>
<!-- UsersModule&#45;&gt;AppModule -->
<g id="edge1" class="edge">
<title>UsersModule&#45;&gt;AppModule</title>
<path fill="none" stroke="black" d="M298.07,-178C286.26,-178 276.81,-178 276.81,-178 276.81,-178 276.81,-313 276.81,-313 276.81,-313 258.01,-313 258.01,-313"/>
<polygon fill="black" stroke="black" points="258.01,-309.5 248.01,-313 258.01,-316.5 258.01,-309.5"/>
</g>
<!-- UsersService  -->
<g id="node9" class="node">
<title>UsersService </title>
<polygon fill="#fb8072" stroke="black" points="383.85,-266 290.15,-266 290.15,-230 383.85,-230 383.85,-266"/>
<text text-anchor="middle" x="337" y="-243.8" font-family="Times,serif" font-size="14.00">UsersService </text>
</g>
<!-- UsersModule&#45;&gt;UsersService  -->
<g id="edge8" class="edge">
<title>UsersModule&#45;&gt;UsersService </title>
<path fill="none" stroke="black" stroke-dasharray="5,2" d="M340.98,-190.01C340.98,-190.01 340.98,-219.85 340.98,-219.85"/>
<polygon fill="black" stroke="black" points="337.48,-219.85 340.98,-229.85 344.48,-219.85 337.48,-219.85"/>
</g>
<!-- postsModule&#45;&gt;AppModule -->
<g id="edge2" class="edge">
<title>postsModule&#45;&gt;AppModule</title>
<path fill="none" stroke="black" d="M206,-266.11C206,-266.11 206,-284.99 206,-284.99"/>
<polygon fill="black" stroke="black" points="202.5,-284.99 206,-294.99 209.5,-284.99 202.5,-284.99"/>
</g>
<!-- AppService -->
<g id="node4" class="node">
<title>AppService</title>
<ellipse fill="#fdb462" stroke="black" cx="81" cy="-248" rx="56.74" ry="18"/>
<text text-anchor="middle" x="81" y="-243.8" font-family="Times,serif" font-size="14.00">AppService</text>
</g>
<!-- AppService&#45;&gt;AppModule -->
<g id="edge3" class="edge">
<title>AppService&#45;&gt;AppModule</title>
<path fill="none" stroke="black" d="M81,-266.11C81,-285.34 81,-313 81,-313 81,-313 154.03,-313 154.03,-313"/>
<polygon fill="black" stroke="black" points="154.03,-316.5 164.03,-313 154.03,-309.5 154.03,-316.5"/>
</g>
<!-- AuthService  -->
<g id="node5" class="node">
<title>AuthService </title>
<polygon fill="#fb8072" stroke="black" points="557.98,-266 468.02,-266 468.02,-230 557.98,-230 557.98,-266"/>
<text text-anchor="middle" x="513" y="-243.8" font-family="Times,serif" font-size="14.00">AuthService </text>
</g>
<!-- AuthModule -->
<g id="node6" class="node">
<title>AuthModule</title>
<polygon fill="#8dd3c7" stroke="black" points="556.55,-190 553.55,-194 532.55,-194 529.55,-190 469.45,-190 469.45,-154 556.55,-154 556.55,-190"/>
<text text-anchor="middle" x="513" y="-167.8" font-family="Times,serif" font-size="14.00">AuthModule</text>
</g>
<!-- AuthModule&#45;&gt;AuthService  -->
<g id="edge4" class="edge">
<title>AuthModule&#45;&gt;AuthService </title>
<path fill="none" stroke="black" stroke-dasharray="5,2" d="M513,-190.01C513,-190.01 513,-219.85 513,-219.85"/>
<polygon fill="black" stroke="black" points="509.5,-219.85 513,-229.85 516.5,-219.85 509.5,-219.85"/>
</g>
<!-- AuthService -->
<g id="node7" class="node">
<title>AuthService</title>
<ellipse fill="#fdb462" stroke="black" cx="513" cy="-104" rx="59.11" ry="18"/>
<text text-anchor="middle" x="513" y="-99.8" font-family="Times,serif" font-size="14.00">AuthService</text>
</g>
<!-- AuthService&#45;&gt;AuthModule -->
<g id="edge5" class="edge">
<title>AuthService&#45;&gt;AuthModule</title>
<path fill="none" stroke="black" d="M513,-122.22C513,-122.22 513,-143.73 513,-143.73"/>
<polygon fill="black" stroke="black" points="509.5,-143.73 513,-153.73 516.5,-143.73 509.5,-143.73"/>
</g>
<!-- PostsService -->
<g id="node8" class="node">
<title>PostsService</title>
<ellipse fill="#fdb462" stroke="black" cx="190" cy="-172" rx="60.27" ry="18"/>
<text text-anchor="middle" x="190" y="-167.8" font-family="Times,serif" font-size="14.00">PostsService</text>
</g>
<!-- PostsService&#45;&gt;postsModule -->
<g id="edge7" class="edge">
<title>PostsService&#45;&gt;postsModule</title>
<path fill="none" stroke="black" d="M206,-189.63C206,-189.63 206,-219.94 206,-219.94"/>
<polygon fill="black" stroke="black" points="202.5,-219.94 206,-229.94 209.5,-219.94 202.5,-219.94"/>
</g>
<!-- UsersService -->
<g id="node10" class="node">
<title>UsersService</title>
<ellipse fill="#fdb462" stroke="black" cx="352" cy="-104" rx="61.95" ry="18"/>
<text text-anchor="middle" x="352" y="-99.8" font-family="Times,serif" font-size="14.00">UsersService</text>
</g>
<!-- UsersService&#45;&gt;UsersModule -->
<g id="edge9" class="edge">
<title>UsersService&#45;&gt;UsersModule</title>
<path fill="none" stroke="black" d="M344,-121.87C344,-121.87 344,-143.54 344,-143.54"/>
<polygon fill="black" stroke="black" points="340.5,-143.54 344,-153.54 347.5,-143.54 340.5,-143.54"/>
</g>
</g>
</svg>
